<svg xmlns="http://www.w3.org/2000/svg" version="1.1" xmlns:xlink="http://www.w3.org/1999/xlink" xmlns:svgjs="http://svgjs.com/svgjs" width="144.941mm" height="137.847mm"><svg width="144.941mm" height="137.847mm" viewBox="-522.431458 231.050568 144.941010 137.847107" version="1.1" id="SvgjsSvg1003" sodipodi:docname="Pentagon.svg" inkscape:version="1.1 (c68e22c387, 2021-05-23)" xmlns:inkscape="http://www.inkscape.org/namespaces/inkscape" xmlns:sodipodi="http://sodipodi.sourceforge.net/DTD/sodipodi-0.dtd" xmlns="http://www.w3.org/2000/svg" xmlns:svg="http://www.w3.org/2000/svg">
  <defs id="SvgjsDefs1002"></defs>
  <sodipodi:namedview id="SvgjsSodipodi:namedview1001" pagecolor="#ffffff" bordercolor="#666666" borderopacity="1.0" inkscape:pageshadow="2" inkscape:pageopacity="0.0" inkscape:pagecheckerboard="0" inkscape:document-units="mm" showgrid="false" inkscape:zoom="1.6756349" inkscape:cx="273.62762" inkscape:cy="260.19987" inkscape:window-width="3840" inkscape:window-height="2054" inkscape:window-x="-11" inkscape:window-y="-11" inkscape:window-maximized="1" inkscape:current-layer="svg4"></sodipodi:namedview>
  <path transform="matrix(-1,0,0,1,0,0)" style="stroke:none;fill:#333333;fill-rule:evenodd" d="M449.960938,231.050568L377.490448,283.703491L405.171692,368.897675L494.750183,368.897675L522.431458,283.703491L449.960938,231.050568M441.30835,304.26297L441.140778,304.384705L441.204773,304.581726L441.30835,304.26297M458.717102,304.581726L458.781128,304.384705L458.613525,304.26297L458.717102,304.581726M450.12854,298.098267L449.960938,297.976501L449.793365,298.098267L450.12854,298.098267M455.204956,314.753479L455.412109,314.753479L455.476135,314.556458L455.204956,314.753479M460.183289,312.398773L461.920624,311.136536L461.257019,309.094147L460.183289,312.398773M458.016052,299.119446L457.352417,297.077087L455.204956,297.077087L458.016052,299.119446M448.223633,318.563477L449.960938,319.825745L451.698303,318.563477L448.223633,318.563477M444.716919,297.077087L442.569458,297.077087L441.905853,299.119446L444.716919,297.077087M461.155548,316.401794L455.204956,320.725159L459.750793,320.725159L461.155548,316.401794M438.766357,316.401794L440.171112,320.725159L444.716919,320.725159L438.766357,316.401794M462.123596,299.431763L464.396515,306.427094L465.80127,302.10376L462.123596,299.431763M446.283295,293.26709L453.638611,293.26709L449.960938,290.595093L446.283295,293.26709M468.27713,306.813171L464.521973,318.370422L470.597961,313.955963L468.27713,306.813171M456.036957,324.535156L443.884949,324.535156L449.960938,328.949646L456.036957,324.535156M455.204956,289.695679L465.036163,296.83847L462.715332,289.695679L455.204956,289.695679M431.644775,306.813171L429.323914,313.955963L435.399963,318.370422L431.644775,306.813171M467.486481,292.050385L473.073853,309.246521L476.527039,298.618744L467.486481,292.050385M469.832886,319.221252L455.204956,329.84906L466.3797,329.84906L469.832886,319.221252M430.08902,319.221252L433.542206,329.84906L444.716919,329.84906L430.08902,319.221252M426.848022,309.246521L432.435425,292.050385L423.394836,298.618744L426.848022,309.246521M453.842377,301.908264L446.079529,301.908264L443.680664,309.291168L449.960938,313.854065L456.241211,309.291168L453.842377,301.908264M462.665863,333.659058L437.256042,333.659058L449.960938,342.889709L462.665863,333.659058M479.00293,303.328156L471.150848,327.494324L483.855774,318.263672L479.00293,303.328156M424.159973,293.353455L444.716919,278.417908L429.012817,278.417908L424.159973,293.353455M420.918976,303.328156L416.066101,318.263672L428.771057,327.494324L420.918976,303.328156M424.241638,280.772644L407.007324,293.294098L413.59021,313.55426L424.241638,280.772644M483.090698,323.528961L455.204956,343.789124L476.507751,343.789124L483.090698,323.528961M432.726624,274.60791L467.195282,274.60791L449.960938,262.086456L432.726624,274.60791M444.716919,343.789124L416.831238,323.528961L423.414124,343.789124L444.716919,343.789124M404.531433,298.00351L395.809998,324.845276L418.642975,341.434418L404.531433,298.00351M444.716919,261.187042L416.493835,261.187042L407.7724,288.028809L444.716919,261.187042M472.793915,347.599121L427.127991,347.599121L449.960938,364.188263L472.793915,347.599121M492.149506,288.028809L483.42807,261.187042L455.204956,261.187042L492.149506,288.028809M506.587799,320.135864L517.952515,285.158783L488.199249,263.541748L506.587799,320.135864M479.714233,257.377014L449.960938,235.759995L420.207642,257.377014L479.714233,257.377014M381.96936,285.158783L393.334106,320.135864L411.722656,263.541748L381.96936,285.158783M396.575073,330.110596L407.93985,365.087677L444.716919,365.087677L396.575073,330.110596" id="SvgjsPath1000"></path>
</svg><style>@media (prefers-color-scheme: light) { :root { filter: none; } }
@media (prefers-color-scheme: dark) { :root { filter: contrast(0.8333333333333334) brightness(1.7); } }
</style></svg>